<svg width="82" height="133" viewBox="0 0 82 133" fill="none" xmlns="http://www.w3.org/2000/svg">
<path d="M25.3743 28.35L24.9392 27.275C23.732 24.7187 23.0779 21.9365 23.0195 19.1101C23.0195 14.209 24.9665 9.50859 28.4321 6.04297C31.8978 2.57734 36.5982 0.630371 41.4993 0.630371C46.4004 0.630371 51.1008 2.57734 54.5665 6.04297C58.0321 9.50859 59.9791 14.209 59.9791 19.1101C59.9507 21.9181 59.3679 24.6929 58.2642 27.275L57.8291 28.1453L45.0314 49.85C44.6954 50.5831 44.1479 51.1991 43.4592 51.6187C42.7706 52.0383 41.9721 52.2424 41.1666 52.2048C40.392 52.2183 39.6308 52.0018 38.9793 51.5827C38.3277 51.1635 37.8152 50.5605 37.5064 49.85L25.4511 28.5548L25.3743 28.35ZM29.2392 25.5601L41.2945 47.2649L53.5291 25.5601C54.4181 23.9325 54.973 22.1436 55.1612 20.2986C55.3493 18.4535 55.167 16.5895 54.6249 14.8159C54.0828 13.0422 53.1919 11.3948 52.0044 9.97021C50.8168 8.54564 49.3567 7.37267 47.7096 6.52016C46.0625 5.66764 44.2618 5.15276 42.413 5.00574C40.5642 4.85872 38.7047 5.08252 36.9436 5.66401C35.1825 6.24551 33.5553 7.17297 32.1575 8.39195C30.7598 9.61093 29.6197 11.0969 28.8041 12.7625C27.7802 14.6819 27.2689 16.833 27.3195 19.0077C27.3529 19.95 27.4902 20.8856 27.7291 21.7976C27.8598 23.171 28.3842 24.4775 29.2392 25.5601Z" fill="#FEE856"/>
<path d="M12.0389 132.369H10.3241C7.99086 132.295 5.78044 131.306 4.17101 129.615C2.56158 127.924 1.68254 125.668 1.72406 123.334V107.465C1.78502 106.879 2.06075 106.337 2.49799 105.943C2.93524 105.549 3.50299 105.331 4.09163 105.331C4.68026 105.331 5.24801 105.549 5.68526 105.943C6.1225 106.337 6.39823 106.879 6.45918 107.465V123.385C6.43864 123.93 6.52566 124.473 6.71527 124.984C6.90487 125.495 7.19335 125.964 7.56419 126.363C7.93503 126.762 8.38097 127.085 8.87649 127.311C9.37201 127.538 9.90741 127.665 10.452 127.685H12.2693C13.3587 127.597 14.3771 127.109 15.1284 126.315C15.8797 125.521 16.3109 124.478 16.3389 123.385V119.571C16.2755 119.261 16.2749 118.94 16.337 118.629C16.3992 118.318 16.5228 118.023 16.7008 117.76C16.8787 117.498 17.1073 117.273 17.3731 117.1C17.639 116.928 17.9367 116.809 18.2488 116.753C18.561 116.697 18.8812 116.703 19.1907 116.773C19.5002 116.842 19.7928 116.972 20.0512 117.156C20.3097 117.34 20.5287 117.574 20.6956 117.843C20.8624 118.113 20.9737 118.413 21.0229 118.727C21.0743 119.006 21.0743 119.292 21.0229 119.571V123.436C20.9158 125.78 19.9334 127.998 18.2699 129.652C16.6064 131.306 14.3829 132.275 12.0389 132.369Z" fill="#FEE856"/>
<path d="M72.6751 132.369H70.9602C68.627 132.295 66.4166 131.306 64.8072 129.615C63.1977 127.924 62.3187 125.668 62.3602 123.334V119.571C62.307 118.949 62.5003 118.331 62.8984 117.851C63.2966 117.37 63.8677 117.064 64.4887 117.001C65.1098 116.937 65.731 117.12 66.2186 117.51C66.7061 117.899 67.021 118.465 67.0953 119.085C67.1207 119.246 67.1207 119.41 67.0953 119.571V123.436C67.0748 123.981 67.1618 124.524 67.3514 125.035C67.541 125.546 67.8295 126.015 68.2004 126.414C68.5712 126.813 69.0171 127.136 69.5126 127.363C70.0082 127.59 70.5436 127.717 71.0882 127.736H72.8799C73.9759 127.66 75.0038 127.176 75.7616 126.381C76.5194 125.585 76.9522 124.535 76.9751 123.436V104.035C76.9219 103.413 77.1152 102.795 77.5133 102.314C77.9114 101.833 78.4826 101.528 79.1036 101.464C79.7246 101.401 80.3459 101.583 80.8334 101.973C81.321 102.363 81.6359 102.929 81.7102 103.549C81.7356 103.71 81.7356 103.874 81.7102 104.035V123.385C81.6031 125.742 80.6153 127.973 78.9422 129.637C77.2691 131.3 75.0326 132.275 72.6751 132.369Z" fill="#FEE856"/>
<path d="M74.6199 82.5352C74.1602 82.1455 73.5674 81.9491 72.9661 81.9873C72.3647 82.0255 71.8015 82.2953 71.3949 82.7399C70.999 83.1968 70.7986 83.791 70.8369 84.3944C70.8752 84.9977 71.1491 85.5618 71.5996 85.9649C73.8665 87.8786 75.5796 90.3644 76.5609 93.164C77.5421 95.9637 77.7557 98.9751 77.1794 101.885H66.2246C64.7145 101.885 64.5097 101.45 64.5097 101.45C63.8698 99.8037 63.8698 97.9773 64.5097 96.331H73.7496C74.3741 96.331 74.9731 96.0829 75.4147 95.6413C75.8563 95.1997 76.1044 94.6008 76.1044 93.9763C76.1044 93.3517 75.8563 92.7528 75.4147 92.3112C74.9731 91.8696 74.3741 91.6215 73.7496 91.6215H62.7949C62.3362 91.653 61.8945 91.8075 61.5162 92.0688C61.1378 92.33 60.8369 92.6883 60.6449 93.106C60.2097 94.181 57.8294 99.9911 60.4145 103.856C61.0546 104.724 61.9051 105.414 62.8858 105.862C63.8665 106.309 64.9451 106.5 66.0199 106.416H75.8996C74.7181 110.075 73.2105 113.622 71.3949 117.012H11.6044C9.67586 113.695 8.1629 110.153 7.09961 106.467H16.9794C18.0542 106.551 19.1328 106.361 20.1135 105.913C21.0942 105.465 21.9447 104.775 22.5847 103.907C25.1443 100.042 22.7895 94.2322 22.3544 93.1572C22.2126 92.7056 21.9241 92.3143 21.5346 92.0454C21.1451 91.7764 20.6769 91.6452 20.2044 91.6727H9.24961C8.62509 91.6727 8.02615 91.9208 7.58455 92.3624C7.14294 92.804 6.89485 93.4029 6.89485 94.0274C6.89485 94.652 7.14294 95.2509 7.58455 95.6925C8.02615 96.1341 8.62509 96.3822 9.24961 96.3822H18.7198C19.3598 98.0285 19.3598 99.8549 18.7198 101.501C18.7198 101.501 18.4895 101.936 16.9794 101.936H6.02461C5.58949 96.331 6.22937 90.3161 11.6044 86.0161C11.8552 85.8345 12.0664 85.6036 12.225 85.3376C12.3836 85.0716 12.4863 84.776 12.5268 84.469C12.5673 84.1619 12.5448 83.8498 12.4606 83.5518C12.3764 83.2538 12.2323 82.976 12.0372 82.7355C11.842 82.4951 11.5998 82.2969 11.3255 82.1532C11.0511 82.0095 10.7504 81.9232 10.4416 81.8997C10.1328 81.8761 9.82239 81.9158 9.52943 82.0163C9.23647 82.1167 8.96708 82.2759 8.73771 82.484H8.60973C5.59127 85.1308 3.36805 88.5646 2.18838 92.402C1.00871 96.2393 0.919039 100.329 1.92938 104.214C2.15973 111.893 8.37937 120.135 8.60973 120.57C9.06135 121.048 9.67009 121.348 10.3246 121.414H72.6746C73.0086 121.431 73.3413 121.362 73.6413 121.214C73.9413 121.066 74.1988 120.844 74.3895 120.57C74.6199 120.135 80.8395 111.97 81.0699 104.214C82.1092 100.358 82.0564 96.2887 80.9175 92.4606C79.7785 88.6325 77.5982 85.1962 74.6199 82.5352Z" fill="#FEE856"/>
<path d="M53.3249 101.45H29.6749C29.0894 101.389 28.5473 101.113 28.1532 100.676C27.7591 100.239 27.541 99.671 27.541 99.0824C27.541 98.4938 27.7591 97.926 28.1532 97.4888C28.5473 97.0515 29.0894 96.7758 29.6749 96.7148H53.3249C53.9517 96.7216 54.5506 96.9753 54.9915 97.421C55.4324 97.8667 55.6797 98.4683 55.6796 99.0952C55.6326 99.7041 55.3694 100.276 54.9376 100.708C54.5058 101.14 53.9338 101.403 53.3249 101.45Z" fill="#FEE856"/>
<path d="M50.7408 108.54H32.261C31.639 108.593 31.0209 108.4 30.5401 108.002C30.0592 107.603 29.754 107.032 29.6902 106.411C29.6264 105.79 29.8092 105.169 30.1991 104.681C30.589 104.194 31.1548 103.879 31.7747 103.805C31.9358 103.779 32.0999 103.779 32.261 103.805H50.7408C51.0545 103.767 51.3726 103.792 51.6765 103.879C51.9804 103.965 52.2641 104.112 52.5108 104.309C52.7576 104.506 52.9627 104.751 53.114 105.028C53.2653 105.306 53.3598 105.611 53.3921 105.925C53.4244 106.239 53.3937 106.557 53.302 106.859C53.2102 107.162 53.0592 107.443 52.8577 107.686C52.6561 107.93 52.4082 108.13 52.1282 108.277C51.8483 108.424 51.5419 108.513 51.2271 108.54C51.066 108.565 50.9019 108.565 50.7408 108.54Z" fill="#FEE856"/>
<path d="M75.9001 73.0649H70.7811L66.2251 58.1429C66.0535 57.6515 65.7362 57.2241 65.3155 56.9178C64.8948 56.6114 64.3907 56.4405 63.8703 56.428H19.1299C18.6343 56.5201 18.1656 56.7219 17.7582 57.0186C17.3507 57.3153 17.0148 57.6995 16.7751 58.1429L12.2703 73.1929H7.1513C5.43811 73.1585 3.78115 73.8046 2.5434 74.9896C1.30565 76.1746 0.588025 77.8018 0.547732 79.5149C0.520229 81.1897 1.15588 82.8076 2.31613 84.0158C3.47638 85.224 5.06717 85.9246 6.74178 85.9649H75.8489C77.4066 85.7675 78.8388 85.0086 79.877 83.8306C80.9151 82.6525 81.4879 81.1363 81.4879 79.5661C81.4879 77.9959 80.9151 76.4796 79.877 75.3016C78.8388 74.1236 77.4066 73.3647 75.8489 73.1673L75.9001 73.0649ZM75.9001 81.2298H7.10011C6.65403 81.23 6.22543 81.0563 5.90525 80.7457C5.58508 80.4351 5.39855 80.012 5.38523 79.5661C5.40977 79.1192 5.59832 78.6972 5.91476 78.3807C6.2312 78.0643 6.65327 77.8757 7.10011 77.8512H13.7549C14.267 77.7985 14.7562 77.6124 15.1739 77.3115C15.5916 77.0105 15.9231 76.6053 16.1352 76.1363L20.64 61.0863H61.9763L66.865 76.0595C67.0132 76.5702 67.3282 77.0165 67.7596 77.3273C68.191 77.6381 68.714 77.7955 69.2453 77.7744H75.9001C76.3462 77.7742 76.7748 77.9478 77.095 78.2585C77.4151 78.5691 77.6017 78.9922 77.615 79.4381C77.5899 79.8823 77.4005 80.3014 77.0835 80.6136C76.7665 80.9259 76.3447 81.109 75.9001 81.1274V81.2298Z" fill="#FEE856"/>
<path d="M41.2958 30.7048C40.0485 30.7597 38.8026 30.5682 37.6294 30.1411C36.4562 29.714 35.3788 29.0597 34.4588 28.2158C33.5387 27.3718 32.7941 26.3547 32.2676 25.2227C31.7411 24.0906 31.443 22.8658 31.3904 21.6185V20.825C31.3416 18.1916 32.3276 15.6441 34.1367 13.7297C35.9457 11.8154 38.4334 10.687 41.0654 10.5869H41.2958C44.0111 10.5869 46.6152 11.6656 48.5352 13.5856C50.4552 15.5056 51.5339 18.1097 51.5339 20.825C51.5339 23.4453 50.493 25.9582 48.6401 27.8111C46.7873 29.6639 44.2744 30.7048 41.6541 30.7048H41.2958ZM41.2958 15.3476C39.9079 15.3267 38.5672 15.8513 37.562 16.8086C36.5569 17.7659 35.9675 19.0794 35.9208 20.4667V20.825C35.8999 22.2129 36.4245 23.5536 37.3817 24.5587C38.339 25.5639 39.6525 26.1532 41.0398 26.2H41.1934C42.544 26.3209 43.8874 25.901 44.9287 25.0324C45.97 24.1639 46.6241 22.9176 46.7475 21.5673C46.7603 21.4054 46.7603 21.2428 46.7475 21.081V20.8762C46.7696 19.4416 46.2356 18.0542 45.2575 17.0045C44.2794 15.9549 42.9331 15.3244 41.5005 15.2452H41.2958V15.3476Z" fill="#FEE856"/>
</svg>
