<svg width="142" height="65" viewBox="0 0 142 65" fill="none" xmlns="http://www.w3.org/2000/svg">
<g clip-path="url(#clip0_1_256)">
<path d="M117.482 65.0001C112.633 65.0001 107.892 63.5722 103.861 60.897C99.8286 58.2217 96.686 54.4193 94.8303 49.9706C92.9746 45.5219 92.4891 40.6266 93.4351 35.9038C94.3811 31.1811 96.7162 26.843 100.145 23.438C103.574 20.0331 107.943 17.7144 112.699 16.775C117.455 15.8355 122.385 16.3177 126.865 18.1604C131.345 20.0031 135.174 23.1237 137.868 27.1274C140.562 31.1312 142 35.8383 142 40.6536V40.9072C141.933 47.3202 139.32 53.4479 134.729 57.959C130.138 62.4702 123.941 65.0004 117.482 65.0001ZM117.482 21.6329C113.643 21.6329 109.89 22.7633 106.698 24.8812C103.506 26.9991 101.019 30.0093 99.5494 33.5313C98.0803 37.0532 97.6959 40.9286 98.4449 44.6674C99.1938 48.4063 101.042 51.8406 103.757 54.5362C106.472 57.2317 109.93 59.0674 113.695 59.8111C117.46 60.5548 121.363 60.1732 124.91 58.7143C128.457 57.2555 131.488 54.7851 133.621 51.6154C135.754 48.4458 136.892 44.7193 136.892 40.9072C136.892 35.7954 134.847 30.8929 131.207 27.2782C127.567 23.6636 122.63 21.6329 117.482 21.6329Z" fill="#FEE856"/>
<path d="M83.259 51.5588L81.7267 51.0516L52.1007 30.7629C51.7231 30.5245 51.4248 30.1808 51.243 29.7748C51.0613 29.3687 51.0043 28.9185 51.0792 28.4804C51.0691 28.0207 51.2146 27.571 51.4924 27.2031C51.7702 26.8353 52.1643 26.5706 52.6115 26.4515L84.0252 13.5175C84.429 13.306 84.8865 13.2173 85.3406 13.2624C85.7948 13.3075 86.2256 13.4844 86.5792 13.7711L119.014 38.8784C119.411 39.1602 119.717 39.5488 119.898 39.9982C120.079 40.4476 120.127 40.939 120.036 41.4145C119.986 41.8684 119.782 42.2918 119.457 42.6147C119.132 42.9375 118.705 43.1404 118.248 43.1897L83.7698 51.3052L83.259 51.5588ZM58.741 29.2412L83.7698 46.2331L111.863 39.6392L84.536 18.5897L58.741 29.2412Z" fill="#FEE856"/>
<path d="M76.8741 8.95232C76.3108 8.97793 75.7547 8.81767 75.2927 8.49653C74.8307 8.1754 74.4887 7.71144 74.3201 7.17706C74.1649 6.47179 74.2911 5.73424 74.6721 5.11942C75.0531 4.50459 75.6593 4.06038 76.3633 3.88014L92.4533 0.0760061C93.0962 -0.0801077 93.775 0.0177262 94.3468 0.348892C94.9185 0.680059 95.3384 1.21869 95.518 1.85127C95.7256 2.41995 95.7002 3.04685 95.447 3.59705C95.1939 4.14726 94.7333 4.57676 94.1644 4.79313H93.7302L77.3849 8.85088L76.8741 8.95232Z" fill="#FEE856"/>
<path d="M83.259 51.5588H83.0036C82.3298 51.4946 81.7092 51.1673 81.2782 50.649C80.8472 50.1306 80.641 49.4636 80.7051 48.7944L85.0468 3.65201C85.1114 2.98289 85.441 2.36663 85.963 1.93864C86.485 1.51065 87.1567 1.30596 87.8306 1.36953C88.1325 1.36279 88.4327 1.41519 88.7142 1.52371C88.9957 1.63223 89.2529 1.79477 89.4711 2.00202C89.6893 2.20927 89.8642 2.45719 89.9859 2.73159C90.1076 3.006 90.1736 3.30153 90.1802 3.60129C90.2055 3.78643 90.2055 3.97409 90.1802 4.15923L85.813 49.2763C85.6976 49.8819 85.3853 50.4332 84.9239 50.8455C84.4625 51.2579 83.8777 51.5084 83.259 51.5588Z" fill="#FEE856"/>
<path d="M46.2266 58.406L44.6942 57.8988C44.4325 57.7491 44.2031 57.5496 44.019 57.3117C43.835 57.0739 43.7 56.8023 43.6217 56.5126C43.5435 56.2229 43.5235 55.9207 43.5629 55.6233C43.6023 55.3259 43.7003 55.0392 43.8514 54.7794C43.9476 54.6253 44.0588 54.4808 44.1834 54.3483C55.1655 39.1318 48.2698 15.5461 48.0144 15.2925C47.9842 14.6068 48.0705 13.9209 48.2698 13.2636C48.4806 12.9806 48.7484 12.7442 49.0561 12.5696C49.3639 12.3949 49.705 12.2858 50.0575 12.2492L60.018 9.96672C60.3631 9.80074 60.7415 9.71407 61.1249 9.71314C61.5084 9.71221 61.8872 9.79704 62.2331 9.96134C62.5791 10.1256 62.8833 10.3652 63.1233 10.6622C63.3632 10.9592 63.5328 11.3061 63.6193 11.6771C63.7058 12.048 63.7071 12.4336 63.623 12.8051C63.539 13.1767 63.3717 13.5246 63.1337 13.8232C62.8957 14.1218 62.5931 14.3633 62.2482 14.5299C61.9034 14.6964 61.5252 14.7837 61.1417 14.7853L53.7353 16.5606C55.523 23.6616 58.8432 43.1895 48.3719 57.3916C47.8182 57.9956 47.0479 58.3599 46.2266 58.406Z" fill="#FEE856"/>
<path d="M53.8885 64.4927L45.9712 63.9855C44.4389 63.9855 30.9029 62.9711 25.2842 56.3773C24.4278 55.3648 23.7833 54.1928 23.3887 52.9299C22.994 51.667 22.857 50.3387 22.9856 49.0226C23.0994 48.4039 23.3393 47.8147 23.6907 47.2914C24.042 46.7681 24.4974 46.3216 25.0288 45.9793C26.0167 45.3888 27.1205 45.0154 28.2659 44.8841C29.4113 44.7529 30.5718 44.8669 31.6691 45.2185C31.665 45.2527 31.6688 45.2875 31.6801 45.3201C31.6915 45.3528 31.7102 45.3824 31.7348 45.4068C31.7594 45.4312 31.7892 45.4498 31.8221 45.4611C31.8549 45.4724 31.89 45.4761 31.9245 45.4721C35.2706 46.6961 38.8367 47.2143 42.3957 46.9937C46.482 46.7401 65.3813 44.9649 69.723 53.3339C70.3174 54.2237 70.6759 55.2481 70.7652 56.3122C70.8545 57.3762 70.6717 58.4454 70.2338 59.4206C68.1907 62.7175 63.0828 64.4927 53.8885 64.4927ZM28.0935 50.037C28.1911 51.1584 28.6374 52.2219 29.3705 53.0803C32.9461 57.1381 42.9065 58.6597 46.2266 58.9134C63.5935 60.435 65.6367 57.1381 65.6367 57.1381L65.3813 56.1236V55.6164C63.5935 51.8123 51.0792 51.3051 43.4173 52.0659H42.9065C38.5771 52.2408 34.2513 51.6394 30.1367 50.2906L28.0935 50.037Z" fill="#FEE856"/>
<path d="M34.223 36.8494C34.1673 37.3388 33.9537 37.7972 33.614 38.1561C33.2744 38.515 32.8269 38.7552 32.3385 38.8408C31.85 38.9264 31.3468 38.8528 30.9039 38.631C30.4611 38.4092 30.1023 38.0511 29.8813 37.6102L28.8597 34.8205L26.5612 40.6535C26.3927 40.9942 26.1422 41.2883 25.8319 41.5099C25.5216 41.7315 25.161 41.8736 24.7822 41.9238C24.4033 41.974 24.0179 41.9306 23.66 41.7975C23.302 41.6644 22.9827 41.4457 22.7302 41.1607L18.8993 36.3422V37.6102C18.8272 38.3898 18.4626 39.1141 17.8777 39.6391C17.2527 39.9749 16.5235 40.0654 15.8345 39.8927L9.70504 38.1174L19.6655 48.5154C20.0021 48.8352 20.2316 49.25 20.3229 49.7036C20.4143 50.1572 20.3631 50.6277 20.1763 51.0515C20.0283 51.4082 19.7821 51.7164 19.4659 51.9407C19.1497 52.1649 18.7763 52.2962 18.3885 52.3195L13.536 52.8268L18.1331 55.1092C18.6326 55.2877 19.0425 55.6522 19.2761 56.1256C19.5097 56.5989 19.5486 57.144 19.3845 57.6453C19.3286 57.8069 19.2513 57.9605 19.1547 58.1018C18.975 58.5978 18.6079 59.0049 18.1312 59.2369C17.6545 59.4688 17.1056 59.5074 16.6007 59.3445L16.141 59.1163L4.39281 53.2833C3.98704 52.9967 3.65837 52.6156 3.43571 52.1734C3.21304 51.7312 3.10319 51.2414 3.11583 50.7472C3.27548 50.3027 3.54705 49.9062 3.9047 49.5954C4.26235 49.2847 4.69415 49.07 5.15899 48.9719L13.3317 48.2111L0.766186 35.0741C0.397212 34.7764 0.144329 34.3603 0.0510937 33.8974C-0.0421419 33.4345 0.0301069 32.9537 0.255395 32.538C0.463774 32.0704 0.844371 31.6995 1.31921 31.5015C1.79404 31.3034 2.32717 31.2932 2.80935 31.4729H2.93705L14.1745 34.5162V29.7483C14.2169 29.2655 14.413 28.8086 14.7345 28.4438C15.0559 28.079 15.4859 27.8253 15.9622 27.7195C16.4172 27.6004 16.8965 27.6084 17.3471 27.7426C17.7978 27.8769 18.2024 28.1322 18.5162 28.4803L23.6241 35.0741L26.4335 27.9731C26.6293 27.5273 26.9501 27.1468 27.3577 26.877C27.7652 26.6072 28.2423 26.4595 28.732 26.4514C29.1949 26.4414 29.6479 26.5859 30.0183 26.8618C30.3887 27.1377 30.6552 27.529 30.7752 27.9731L34.0953 35.835L34.223 36.8494Z" fill="#FEE856"/>
</g>
<defs>
<clipPath id="clip0_1_256">
<rect width="142" height="65" fill="white"/>
</clipPath>
</defs>
</svg>
