<svg width="101" height="90" viewBox="0 0 101 90" fill="none" xmlns="http://www.w3.org/2000/svg">
<path d="M96.6995 45.0327C92.5182 43.4073 88.4954 41.4005 84.682 39.0377C78.907 35.1052 75.9095 36.7277 74.9745 37.4152C72.6155 38.4887 70.3758 39.8067 68.292 41.3477C67.9772 41.6376 67.5649 41.7985 67.137 41.7985C66.709 41.7985 66.2968 41.6376 65.982 41.3477C59.7395 36.0402 58.8045 33.0977 58.5845 31.6402L67.6045 26.1402C68.1552 25.8382 68.5687 25.3361 68.7595 24.7377C69.1995 23.5827 73.5995 12.9677 74.2595 10.6577C74.507 9.12767 74.507 7.56777 74.2595 6.03772C73.9147 4.77131 73.1621 3.65389 72.1181 2.85846C71.0741 2.06303 69.797 1.63397 68.4845 1.63772C67.2691 1.63887 66.0754 1.95963 65.0232 2.56781C63.971 3.17598 63.0972 4.05019 62.4895 5.10272L56.9895 16.9002L48.217 21.5202C47.9424 21.6607 47.6988 21.8547 47.5004 22.0909C47.302 22.3271 47.153 22.6005 47.062 22.8952C46.8993 23.5151 46.9779 24.1736 47.282 24.7377C47.366 25.0133 47.5047 25.2691 47.6898 25.4899C47.8748 25.7107 48.1025 25.892 48.3592 26.0229C48.6158 26.1538 48.8962 26.2316 49.1836 26.2518C49.471 26.272 49.7596 26.234 50.032 26.1402C50.2795 26.1402 50.2795 25.8927 50.4995 25.8927L60.207 20.7502L61.362 19.5952L66.6695 7.57772C67.1384 6.99884 67.7866 6.59249 68.512 6.42272C69.447 6.42272 69.447 6.89022 69.447 7.35772C69.667 8.11201 69.667 8.91343 69.447 9.66772C69.1995 10.8227 66.8895 16.8177 64.827 22.3727L55.587 27.8727C55.3313 27.9082 55.0897 28.0109 54.8868 28.1703C54.6839 28.3298 54.5269 28.5402 54.432 28.7802C53.7453 30.4828 53.7453 32.3852 54.432 34.0877C56.3343 38.4022 59.272 42.1806 62.9845 45.0877C64.1808 46.0855 65.6892 46.6319 67.247 46.6319C68.8048 46.6319 70.3132 46.0855 71.5095 45.0877L77.2845 41.8427H77.752C79.2495 42.0299 80.6768 42.5875 81.9045 43.4652C86.0178 45.9455 90.3542 48.0354 94.857 49.7077C95.0084 49.9412 95.1065 50.2051 95.1445 50.4807C95.1826 50.7564 95.1595 51.037 95.077 51.3027C94.857 52.4577 94.3895 52.2377 94.1695 52.2377C91.9649 51.52 89.8656 50.512 87.927 49.2402C80.5295 43.9327 77.2845 44.8402 76.1295 45.0877L65.982 50.3952C65.3297 50.7072 64.7454 51.1446 64.2624 51.6826C63.7794 52.2206 63.4072 52.8485 63.1671 53.5305C62.927 54.2125 62.8237 54.9351 62.8632 55.657C62.9026 56.3789 63.084 57.086 63.397 57.7377C65.267 60.4877 80.502 69.7277 80.502 69.7277C81.1062 70.4429 81.4374 71.349 81.437 72.2852C80.2484 72.4003 79.0524 72.1611 77.9995 71.5977L55.1195 56.1152C50.9464 52.1755 47.9801 47.13 46.567 41.5677C46.4582 40.4997 46.113 39.4693 45.5565 38.5513C45 37.6333 44.2461 36.8506 43.3495 36.2602C42.6679 35.7343 41.8724 35.3757 41.027 35.2133C40.1816 35.0509 39.3099 35.0893 38.482 35.3252C35.2575 35.7986 32.3205 37.4434 30.232 39.9452C30.0818 40.0974 29.9632 40.2778 29.8829 40.4761C29.8027 40.6743 29.7624 40.8864 29.7645 41.1002C29.4962 44.2116 29.8134 47.3457 30.6995 50.3402C30.9702 51.1667 31.1184 52.0283 31.1395 52.8977V54.7402H30.232C29.0827 53.2117 28.4733 51.3449 28.4995 49.4327L27.3445 39.5052C27.4543 38.5068 27.9472 37.59 28.7195 36.9477C32.3915 35.3847 35.9399 33.5461 39.3345 31.4477L52.672 24.9027C52.9977 24.8065 53.2942 24.6302 53.5343 24.3901C53.7745 24.1499 53.9507 23.8534 54.047 23.5277C54.2125 22.9081 54.1337 22.2485 53.827 21.6852C53.7429 21.4096 53.6042 21.1538 53.4192 20.933C53.2341 20.7122 53.0064 20.5309 52.7498 20.4C52.4931 20.2691 52.2127 20.1913 51.9253 20.1711C51.6379 20.151 51.3494 20.1889 51.077 20.2827C50.8295 20.2827 50.8295 20.5302 50.6095 20.5302L36.612 27.7352L26.9045 32.3552C25.6404 33.0786 24.5903 34.1237 23.8609 35.3844C23.1316 36.645 22.749 38.0763 22.752 39.5327L23.907 49.6802C24.099 53.0328 25.5883 56.179 28.0595 58.4527C28.5003 58.8113 29.0145 59.0686 29.5658 59.2064C30.117 59.3442 30.6918 59.3591 31.2495 59.2502C32.079 59.1387 32.8763 58.8563 33.5911 58.4208C34.3058 57.9853 34.9225 57.4062 35.402 56.7202C35.752 56.2225 35.9772 55.6478 36.0585 55.0448C36.1399 54.4417 36.0751 53.828 35.8695 53.2552C35.824 51.8517 35.6677 50.4541 35.402 49.0752C34.858 46.8026 34.5447 44.4808 34.467 42.1452C35.9714 41.0193 37.6807 40.1974 39.4995 39.7252H40.6545C41.562 40.1927 41.8095 41.5677 42.0295 42.0352C43.4516 48.6537 46.8912 54.6683 51.8745 59.2502L75.442 75.4202C77.11 76.4107 79.0029 76.9596 80.942 77.0152H82.7845C83.4329 76.8912 84.0338 76.5886 84.5196 76.1417C85.0054 75.6947 85.3569 75.121 85.5345 74.4852C86.1788 73.1167 86.3688 71.5781 86.0769 70.094C85.7851 68.6098 85.0265 67.2578 83.912 66.2352C78.4884 62.9617 73.238 59.4094 68.182 55.5927L68.6495 55.1252L77.8895 50.2852C80.554 50.8364 83.0452 52.0253 85.1495 53.7502C87.7704 55.6533 90.7574 56.9923 93.922 57.6827C95.405 57.5978 96.8136 57.0045 97.9105 56.0028C99.0074 55.0011 99.7257 53.652 99.9445 52.1827C100.207 51.5092 100.334 50.7907 100.318 50.0681C100.302 49.3456 100.144 48.6332 99.8531 47.9718C99.562 47.3103 99.1433 46.7127 98.621 46.2131C98.0988 45.7135 97.4832 45.3218 96.8095 45.0602L96.6995 45.0327Z" fill="#FEE856"/>
<path d="M39.1704 21.2451C41.2263 21.2451 43.2361 20.6354 44.9456 19.4932C46.655 18.351 47.9874 16.7275 48.7741 14.8281C49.5609 12.9286 49.7668 10.8386 49.3657 8.82212C48.9646 6.80569 47.9745 4.95348 46.5208 3.49971C45.067 2.04594 43.2148 1.05591 41.1984 0.654819C39.1819 0.253725 37.0918 0.459585 35.1924 1.24636C33.293 2.03313 31.6695 3.36548 30.5273 5.07493C29.3851 6.78438 28.7754 8.79415 28.7754 10.8501V11.0701C28.8536 13.7819 29.9807 16.3577 31.9195 18.2554C33.8582 20.1531 36.4575 21.2249 39.1704 21.2451ZM39.1704 5.54258C40.2582 5.54258 41.3216 5.86515 42.226 6.4695C43.1305 7.07385 43.8355 7.93283 44.2517 8.93783C44.668 9.94282 44.7769 11.0487 44.5647 12.1156C44.3525 13.1825 43.8287 14.1625 43.0595 14.9317C42.2903 15.7009 41.3103 16.2247 40.2434 16.4369C39.1765 16.6491 38.0706 16.5402 37.0656 16.1239C36.0606 15.7076 35.2017 15.0027 34.5973 14.0982C33.993 13.1938 33.6704 12.1304 33.6704 11.0426C33.6704 9.58389 34.2499 8.18495 35.2813 7.1535C36.3128 6.12205 37.7117 5.54258 39.1704 5.54258Z" fill="#FEE856"/>
<path d="M13.0728 70.9101L46.3478 73.6601C46.9687 73.6181 47.5569 73.3668 48.0165 72.9472C48.476 72.5276 48.7797 71.9646 48.8778 71.3501C48.8398 70.6696 48.5668 70.0235 48.1054 69.5219C47.6439 69.0204 47.0227 68.6946 46.3478 68.6001L13.3478 65.8501L11.7253 66.3176C11.2092 66.8391 10.8148 67.4683 10.5703 68.1601C10.6586 68.7956 10.9825 69.3747 11.4778 69.7826C11.6026 70.107 11.8207 70.3873 12.1045 70.5879C12.3884 70.7886 12.7253 70.9007 13.0728 70.9101Z" fill="#FEE856"/>
<path d="M36.7502 84.3027L3.47521 81.5527L1.88021 82.0202C1.60709 82.2735 1.38826 82.5796 1.23699 82.9199C1.08572 83.2603 1.00516 83.6278 1.00021 84.0002C0.91516 84.2871 0.913983 84.5923 0.996824 84.8798C1.07967 85.1673 1.24306 85.4251 1.46771 85.6227C1.65539 85.8857 1.89739 86.1053 2.17732 86.2666C2.45725 86.4279 2.76857 86.5272 3.09021 86.5577L36.3377 89.3077C36.9198 89.3677 37.5035 89.2097 37.9759 88.8643C38.4482 88.5189 38.7758 88.0106 38.8952 87.4377V87.2177C38.9903 86.5873 38.8328 85.9449 38.4569 85.43C38.081 84.9151 37.5171 84.5693 36.8877 84.4677L36.7502 84.3027Z" fill="#FEE856"/>
<path d="M73.8198 79.215L20.2498 74.5951C19.9256 74.4895 19.5783 74.4774 19.2476 74.5601C18.9168 74.6427 18.6161 74.8169 18.3798 75.0626C18.0067 75.3623 17.7286 75.7638 17.579 76.2184C17.4295 76.673 17.4149 77.1612 17.5372 77.6239C17.6594 78.0866 17.9131 78.5039 18.2677 78.8254C18.6222 79.1468 19.0623 79.3586 19.5348 79.435L73.3798 84C74.0006 83.958 74.5889 83.7067 75.0484 83.2871C75.508 82.8676 75.8116 82.3045 75.9098 81.69C75.9904 81.3828 75.996 81.0607 75.9259 80.7508C75.8559 80.441 75.7124 80.1525 75.5074 79.9098C75.3025 79.6672 75.0422 79.4773 74.7484 79.3564C74.4547 79.2355 74.1362 79.187 73.8198 79.215Z" fill="#FEE856"/>
</svg>
