<svg width="73" height="99" viewBox="0 0 73 99" fill="none" xmlns="http://www.w3.org/2000/svg">
<path d="M57.4136 92.3085H21.5207C21.2315 92.3486 20.9371 92.2932 20.6823 92.1507C20.4274 92.0082 20.2261 91.7863 20.109 91.5188L7.45074 78.8367C7.06344 78.4527 6.78301 77.9743 6.63717 77.4488V72.4238C6.61132 71.8979 6.70072 71.3727 6.89912 70.885C7.09752 70.3973 7.40012 69.9588 7.78574 69.6003C8.1296 69.1428 8.59301 68.789 9.12495 68.5779C9.65689 68.3669 10.2368 68.3066 10.8007 68.4038H20.0372C20.9953 68.5001 21.887 68.9371 22.5501 69.6354C23.2132 70.3336 23.6036 71.2467 23.6504 72.2085C23.6504 73.2135 23.459 76.037 23.459 78.047H54.3986V73.022C54.4923 71.7839 55.0266 70.6203 55.9046 69.7424C56.7826 68.8644 57.9462 68.3301 59.1843 68.2363H68.0379C68.8275 68.4517 72.0579 69.8395 72.0579 72.8545V77.0899C72.0705 77.4044 72.0023 77.7168 71.8599 77.9975C71.7175 78.2781 71.5056 78.5176 71.2443 78.6931L58.5861 91.3513C58.5195 91.6157 58.3695 91.8516 58.1583 92.024C57.9471 92.1964 57.686 92.2961 57.4136 92.3085ZM22.43 88.097H56.4086L67.8465 76.6353V73.2135L66.8415 72.4238H59.2082C59.1044 72.4236 59.0044 72.4632 58.9287 72.5344C58.8531 72.6056 58.8076 72.703 58.8015 72.8067V79.9853C58.7952 80.5672 58.5613 81.1235 58.1498 81.535C57.7383 81.9465 57.182 82.1805 56.6 82.1867H21.425L20.0132 81.7799C19.5529 81.3675 19.2699 80.793 19.2236 80.1767C19.2236 80.1767 19.415 74.7449 19.415 72.7349H10.7768V76.5635L22.43 88.097Z" fill="#FEE856"/>
<path d="M17.213 98.5538H13.5758C12.1601 98.4838 10.8214 97.8883 9.82135 96.8838C8.82128 95.8793 8.23175 94.538 8.16797 93.122V79.052C8.16797 78.4682 8.39991 77.9082 8.81275 77.4954C9.2256 77.0825 9.78554 76.8506 10.3694 76.8506C10.9533 76.8506 11.5132 77.0825 11.926 77.4954C12.3389 77.9082 12.5708 78.4682 12.5708 79.052V93.122C12.5986 93.434 12.7367 93.726 12.9604 93.9453C13.1841 94.1646 13.4787 94.2969 13.7912 94.3184H17.3565C17.6665 94.2962 17.9581 94.163 18.1778 93.9433C18.3976 93.7236 18.5307 93.432 18.553 93.122V89.102C18.553 88.5118 18.7874 87.9458 19.2048 87.5285C19.6221 87.1111 20.1881 86.8767 20.7783 86.8767C21.3397 86.9518 21.8604 87.2111 22.2587 87.6137C22.6571 88.0164 22.9107 88.5398 22.9798 89.102V93.122C22.7352 94.5292 22.041 95.8193 21.0012 96.7986C19.9615 97.7779 18.6323 98.3938 17.213 98.5538Z" fill="#FEE856"/>
<path d="M65.2139 98.5535H61.8161C61.109 98.5567 60.4083 98.4205 59.7539 98.1529C59.0995 97.8852 58.5042 97.4913 58.002 96.9936C57.4999 96.4958 57.1006 95.9041 56.8272 95.2521C56.5537 94.6001 56.4113 93.9006 56.4082 93.1935V89.1018C56.4082 88.5179 56.6401 87.958 57.053 87.5451C57.4658 87.1323 58.0258 86.9003 58.6096 86.9003C59.1935 86.9003 59.7534 87.1323 60.1663 87.5451C60.5791 87.958 60.8111 88.5179 60.8111 89.1018V93.1218C60.8388 93.4338 60.9769 93.7257 61.2006 93.945C61.4243 94.1643 61.7189 94.2966 62.0314 94.3182H65.4532C65.7632 94.296 66.0547 94.1628 66.2745 93.943C66.4942 93.7233 66.6274 93.4317 66.6496 93.1218V79.0518C66.5999 78.4702 66.7806 77.8924 67.1528 77.4429C67.525 76.9933 68.0589 76.708 68.6395 76.6484C69.2201 76.5887 69.8009 76.7596 70.2567 77.1241C70.7125 77.4886 71.0069 78.0176 71.0764 78.5971C71.1002 78.7477 71.1002 78.9011 71.0764 79.0518V93.1218C70.9209 94.5828 70.2413 95.9381 69.1635 96.9367C68.0857 97.9354 66.6826 98.5097 65.2139 98.5535Z" fill="#FEE856"/>
<path d="M45.7373 82.2584C45.1554 82.2521 44.5991 82.0182 44.1876 81.6067C43.7761 81.1952 43.5421 80.6389 43.5359 80.0569V76.2284C43.5359 75.8934 43.5359 75.5584 43.3445 75.2234H35.3045C35.0891 75.4387 35.0891 75.6302 35.0891 76.0369V79.8416C35.1389 80.4231 34.9582 81.0009 34.586 81.4505C34.2137 81.9 33.6798 82.1854 33.0992 82.245C32.5186 82.3046 31.9378 82.1338 31.482 81.7692C31.0262 81.4047 30.7318 80.8757 30.6623 80.2962C30.6386 80.1456 30.6386 79.9922 30.6623 79.8416V76.2284C30.6301 75.5997 30.7222 74.9709 30.9334 74.3779C31.1446 73.7849 31.4707 73.2394 31.893 72.7726C32.3153 72.3058 32.8256 71.927 33.3946 71.6577C33.9635 71.3884 34.58 71.234 35.2088 71.2034H43.6795C44.8855 71.2941 46.0125 71.8381 46.8338 72.7259C47.655 73.6138 48.1097 74.7796 48.1063 75.9891V80.0091C48.0352 80.6012 47.7596 81.15 47.3271 81.5606C46.8946 81.9712 46.3324 82.218 45.7373 82.2584Z" fill="#FEE856"/>
<path d="M44.3493 75.6302C43.7632 75.6302 43.2008 75.399 42.7841 74.9869C42.3675 74.5747 42.1303 74.0148 42.124 73.4287V58.3537L40.7122 57.947L39.7072 56.942L38.9175 57.5402C38.61 57.8573 38.1975 58.0516 37.7572 58.0868C37.3168 58.122 36.8787 57.9958 36.5247 57.7316V73.2134C36.5598 73.5067 36.5363 73.8041 36.4553 74.0882C36.3743 74.3723 36.2376 74.6375 36.0531 74.8682C35.8686 75.0989 35.64 75.2906 35.3807 75.432C35.1213 75.5735 34.8364 75.6619 34.5425 75.6921C34.2486 75.7222 33.9517 75.6936 33.669 75.6078C33.3863 75.522 33.1235 75.3808 32.896 75.1924C32.6684 75.004 32.4806 74.7722 32.3436 74.5105C32.2066 74.2488 32.1231 73.9624 32.0979 73.668C32.0741 73.5174 32.0741 73.364 32.0979 73.2134V53.927C32.0994 53.5926 32.1944 53.2654 32.3719 52.9821C32.5495 52.6989 32.8027 52.4708 33.1029 52.3237C33.4667 52.1137 33.8793 52.0032 34.2993 52.0032C34.7194 52.0032 35.132 52.1137 35.4957 52.3237L37.099 53.3287L38.3193 52.5152C38.6667 52.19 39.115 51.9936 39.5896 51.9588C40.0642 51.924 40.5364 52.0528 40.9275 52.3237L41.9325 53.3287L42.9375 52.5152C43.2493 52.2147 43.6443 52.0151 44.0712 51.9426C44.498 51.87 44.9369 51.9278 45.3304 52.1084C45.6688 52.3312 45.9522 52.6278 46.1595 52.976C46.3667 53.3241 46.4923 53.7147 46.5268 54.1184V73.4287C46.5206 74.0107 46.2867 74.567 45.8752 74.9785C45.4636 75.39 44.9073 75.6239 44.3254 75.6302H44.3493Z" fill="#FEE856"/>
<path d="M27.2632 32.2237L25.0379 31.8169C23.9543 31.2613 23.1054 30.336 22.645 29.2087L21.8554 27.3901H21.64C20.3962 27.8307 19.0287 27.7619 17.8354 27.1987C17.2574 26.9794 16.7394 26.6267 16.3236 26.1693C15.9077 25.7119 15.6059 25.1627 15.4425 24.5665L11.1832 13.1287C10.9444 12.5474 10.8224 11.9247 10.8242 11.2962C10.8261 10.6677 10.9517 10.0458 11.1939 9.46582C11.4361 8.88588 11.7901 8.35933 12.2358 7.91623C12.6815 7.47312 13.2101 7.12214 13.7914 6.88333L30.8764 0.661902C32.0465 0.255277 33.3196 0.255277 34.4897 0.661902C35.0592 0.888291 35.5703 1.24046 35.9846 1.6921C36.399 2.14375 36.7059 2.68319 36.8825 3.27012L41.5007 14.9233C41.8907 16.129 41.8175 17.4368 41.2955 18.5915C40.7734 19.7462 39.84 20.665 38.6772 21.1687H38.2943L39.0839 22.7719C39.3297 23.9729 39.2638 25.2168 38.8925 26.3851C38.6661 26.9547 38.3139 27.4657 37.8623 27.8801C37.4107 28.2944 36.8712 28.6014 36.2843 28.778L29.3211 31.4101L27.2632 32.2237ZM23.4347 22.3651H24.2482C24.5317 22.4489 24.7896 22.6022 24.9986 22.8112C25.2076 23.0202 25.3609 23.2781 25.4447 23.5615L26.9282 27.1987C26.9282 27.3901 27.335 27.5815 27.335 27.3901L34.5136 24.9973V24.2076L33.1018 20.5705C32.9097 20.0362 32.929 19.4487 33.1559 18.9283C33.3828 18.4078 33.8 17.9937 34.3222 17.7708L36.9304 16.7658C37.1218 16.7658 37.1218 16.5505 37.1218 16.359L32.9104 4.89726C32.695 4.70583 32.5036 4.49047 32.0968 4.70583L15.3468 10.9273C15.1554 10.9273 14.94 11.334 15.1554 11.5255V11.7408L19.4147 23.1787H19.7497L22.3579 22.1737L23.4347 22.3651Z" fill="#FEE856"/>
<path d="M6.35078 25.9785C5.03763 26.0148 3.75546 25.5761 2.73979 24.743C1.72413 23.9098 1.04317 22.7382 0.82202 21.4433C0.600868 20.1484 0.854367 18.8172 1.53595 17.6942C2.21753 16.5712 3.28143 15.7318 4.53221 15.3302L13.1944 11.9085C13.7245 11.8162 14.2703 11.9054 14.7436 12.1615C15.2168 12.4177 15.5899 12.8259 15.8026 13.3202L18.1954 19.5417C18.2895 19.7651 18.338 20.0051 18.338 20.2476C18.338 20.49 18.2895 20.73 18.1954 20.9535C18.1001 21.2373 17.9403 21.4952 17.7286 21.707C17.5168 21.9187 17.2589 22.0785 16.9751 22.1738L8.33685 25.787L6.35078 25.9785ZM5.944 19.5417C5.67653 19.6588 5.45465 19.8601 5.31211 20.115C5.16958 20.3698 5.11418 20.6642 5.15436 20.9535C5.2957 21.2459 5.52909 21.4838 5.81869 21.6308C6.1083 21.7777 6.43813 21.8256 6.75757 21.767L13.1944 19.1588L12.3808 16.9335L5.944 19.5417Z" fill="#FEE856"/>
<path d="M37.6962 14.5165C37.2803 14.4456 36.8849 14.2846 36.5377 14.0449C36.1905 13.8052 35.8999 13.4925 35.6862 13.1286L33.2933 6.88329C33.1874 6.62932 33.1328 6.35686 33.1328 6.08168C33.1328 5.80649 33.1874 5.53404 33.2933 5.28007C33.3771 4.99664 33.5304 4.73868 33.7394 4.52971C33.9484 4.32073 34.2063 4.16738 34.4898 4.08364L43.128 1.06864C44.4867 0.571002 45.9867 0.628449 47.3033 1.22855C48.6199 1.82865 49.6473 2.92313 50.163 4.27507C50.4288 4.95109 50.5491 5.67554 50.5162 6.40119C50.4832 7.12684 50.2976 7.83739 49.9715 8.4865C49.2746 9.68715 48.2207 10.6407 46.9565 11.2144L38.5098 14.3251L37.6962 14.5165ZM38.103 7.33793L39.108 9.53936L45.5447 7.1465L46.3583 6.33293V5.32793C46.1943 5.12198 45.9703 4.97216 45.7173 4.89927C45.4644 4.82638 45.195 4.83403 44.9465 4.92114L38.103 7.33793Z" fill="#FEE856"/>
<path d="M34.4909 49.0933H34.1081C33.785 48.9735 33.4916 48.7853 33.2479 48.5416C33.0042 48.298 32.8161 48.0046 32.6963 47.6815L26.2595 30.5965C26.0659 30.0651 26.0818 29.48 26.304 28.96C26.5263 28.44 26.9381 28.0241 27.4559 27.7968L34.8977 25.1886C35.4183 24.9744 36.0025 24.9749 36.5226 25.1901C37.0427 25.4054 37.4565 25.8178 37.6734 26.3372L44.1102 43.4222C44.2068 43.7966 44.2204 44.1876 44.1501 44.5679C44.0798 44.9481 43.9274 45.3084 43.7034 45.6236C43.1376 46.1026 42.4331 46.3877 41.6934 46.4372H38.5109L36.3095 48.83C35.6874 48.9018 35.0892 49.0933 34.4909 49.0933ZM31.0691 31.0033L35.6874 42.6565L36.0942 41.8668C36.66 41.3879 37.3644 41.1027 38.1041 41.0533H39.1092L34.4909 29.4L31.0691 31.0033Z" fill="#FEE856"/>
<path d="M52.3892 43.2787C52.0067 43.2637 51.6314 43.1712 51.2858 43.0066C50.9403 42.8421 50.6318 42.609 50.3792 42.3216C50.0959 41.8143 50.02 41.2172 50.1671 40.6552C50.3143 40.0932 50.6733 39.6099 51.1688 39.3066L58.6106 35.143C59.0594 34.9719 59.5566 34.9781 60.001 35.1603C60.4455 35.3426 60.8039 35.6872 61.0034 36.1241C61.014 36.2595 61.014 36.3955 61.0034 36.5309C61.1137 36.9213 61.1163 37.3342 61.011 37.726C60.9056 38.1177 60.6963 38.4737 60.4052 38.7562L53.2506 43.0634L52.3892 43.2787Z" fill="#FEE856"/>
<path d="M62.4378 50.3138H53.7757C53.2142 50.2386 52.6936 49.9794 52.2953 49.5767C51.8969 49.174 51.6433 48.6506 51.5742 48.0884C51.5804 47.5065 51.8144 46.9501 52.2259 46.5386C52.6374 46.1271 53.1937 45.8932 53.7757 45.887H62.4378C63.0197 45.8932 63.5761 46.1271 63.9876 46.5386C64.3991 46.9501 64.633 47.5065 64.6392 48.0884C64.5387 48.6377 64.2749 49.144 63.8821 49.541C63.4894 49.938 62.986 50.2073 62.4378 50.3138Z" fill="#FEE856"/>
<path d="M59.4236 61.4644H58.6101L51.1683 57.2529C50.7096 56.9295 50.3791 56.4551 50.2348 55.9127C50.0904 55.3703 50.1413 54.7945 50.3786 54.2858C50.6751 53.8226 51.1342 53.487 51.6656 53.3453C52.1971 53.2036 52.7623 53.266 53.25 53.5201L60.6918 58.1383C61.1692 58.3529 61.5426 58.7473 61.7308 59.2357C61.919 59.7241 61.9068 60.2671 61.6968 60.7465C61.6968 60.9619 61.5054 60.9619 61.5054 61.1533C60.8375 61.3882 60.131 61.4938 59.4236 61.4644Z" fill="#FEE856"/>
</svg>
