<svg width="101" height="99" viewBox="0 0 101 99" fill="none" xmlns="http://www.w3.org/2000/svg">
<path d="M7.25894 49.8906C5.66925 49.9849 4.10695 49.4455 2.9141 48.3905C1.72126 47.3354 0.995063 45.8507 0.894531 44.2614V33.2788C0.918288 31.5982 1.59645 29.9932 2.7849 28.8047C3.97334 27.6163 5.57839 26.9381 7.25894 26.9144H12.2907C13.9428 26.9736 15.5081 27.6688 16.6598 28.8547C17.8115 30.0406 18.4605 31.6257 18.4713 33.2788V43.71C18.4958 44.4976 18.3649 45.2823 18.0859 46.0192C17.807 46.7562 17.3856 47.431 16.8457 48.005C16.3059 48.579 15.6582 49.0409 14.9397 49.3645C14.2212 49.688 13.446 49.8668 12.6583 49.8906H7.25894ZM7.25894 31.119C7.00237 31.0728 6.73919 31.0778 6.48456 31.1337C6.22993 31.1896 5.98888 31.2954 5.77531 31.4449C5.56174 31.5944 5.37986 31.7847 5.24015 32.0048C5.10045 32.2249 5.00569 32.4705 4.96132 32.7274C4.95057 32.7727 4.95057 32.8199 4.96132 32.8652V43.664C4.96729 44.2228 5.19192 44.757 5.58704 45.1521C5.98217 45.5472 6.51636 45.7719 7.07513 45.7778H12.2907C12.8495 45.7719 13.3837 45.5472 13.7788 45.1521C14.1739 44.757 14.3986 44.2228 14.4045 43.664V33.2788C14.4651 32.7482 14.3203 32.2145 13.9998 31.7873C13.6794 31.36 13.2076 31.0716 12.6813 30.9812H7.25894V31.119Z" fill="#FEE856"/>
<path d="M33.5207 98.1405H27.3401C25.5357 98.1409 23.803 97.4336 22.5142 96.1706C21.2255 94.9077 20.4834 93.1896 20.4473 91.3855V83.6655C20.5136 83.1257 20.7571 82.6231 21.1396 82.2365C21.5221 81.8498 22.022 81.6009 22.5611 81.5288C23.1238 81.5348 23.6614 81.7626 24.0572 82.1627C24.4529 82.5627 24.6749 83.1028 24.6749 83.6655V91.3855C24.7648 92.0532 25.0847 92.6687 25.5796 93.1258C26.0745 93.583 26.7134 93.8532 27.3861 93.8899H33.5667C34.2272 93.8782 34.8574 93.6105 35.3245 93.1434C35.7916 92.6762 36.0593 92.0461 36.0711 91.3855V83.6655C36.0233 83.1072 36.1968 82.5524 36.5542 82.1207C36.9116 81.689 37.4243 81.4151 37.9818 81.3578C38.5393 81.3005 39.0969 81.4646 39.5346 81.8146C39.9723 82.1646 40.2549 82.6726 40.3217 83.229C40.3445 83.3736 40.3445 83.5209 40.3217 83.6655V91.3855C40.2861 93.1738 39.5567 94.8783 38.2876 96.1388C37.0186 97.3992 35.3092 98.117 33.5207 98.1405Z" fill="#FEE856"/>
<path d="M25.4109 74.7738C24.9583 74.7768 24.5095 74.6907 24.0902 74.5202C23.6709 74.3498 23.2893 74.0985 22.9671 73.7806C22.645 73.4627 22.3886 73.0845 22.2126 72.6675C22.0366 72.2505 21.9445 71.8029 21.9415 71.3503V62.6194C21.9385 62.1668 22.0246 61.718 22.195 61.2987C22.3654 60.8794 22.6168 60.4978 22.9347 60.1756C23.2526 59.8535 23.6308 59.5971 24.0478 59.4211C24.4648 59.2451 24.9123 59.153 25.3649 59.15H36.2097C37.128 59.1499 38.0094 59.5115 38.6631 60.1566C39.3167 60.8016 39.69 61.6781 39.7021 62.5964V71.2814C39.7021 72.2037 39.3373 73.0885 38.6873 73.7428C38.0373 74.3971 37.1549 74.7677 36.2327 74.7738H25.4109ZM26.1921 70.73H35.6353V63.4006H26.1921V70.73Z" fill="#FEE856"/>
<path d="M44.5255 85.7793C43.9627 85.7794 43.4227 85.5574 43.0226 85.1616C42.6225 84.7659 42.3947 84.2282 42.3887 83.6655V61.6543C42.3947 61.0916 42.6225 60.554 43.0226 60.1582C43.4227 59.7625 43.9627 59.5405 44.5255 59.5405H50.6831C50.9647 59.5068 51.2503 59.5294 51.5231 59.6071C51.7959 59.6849 52.0505 59.8162 52.272 59.9933C52.4935 60.1705 52.6776 60.39 52.8134 60.639C52.9492 60.888 53.0341 61.1616 53.0631 61.4438C53.0921 61.726 53.0646 62.0111 52.9822 62.2826C52.8999 62.554 52.7643 62.8063 52.5834 63.0248C52.4025 63.2433 52.1799 63.4236 51.9286 63.5552C51.6772 63.6867 51.4023 63.767 51.1196 63.7911H46.5244V83.9642C46.451 84.4506 46.2121 84.8968 45.8479 85.2275C45.4838 85.5582 45.0167 85.7531 44.5255 85.7793Z" fill="#FEE856"/>
<path d="M84.4587 85.7794H16.5411C15.9783 85.7794 15.4383 85.5574 15.0382 85.1617C14.6381 84.7659 14.4103 84.2283 14.4043 83.6655V2.78935C14.4103 2.22663 14.6381 1.68901 15.0382 1.29324C15.4383 0.897475 15.9783 0.675505 16.5411 0.675537H84.4587C85.0215 0.675505 85.5615 0.897475 85.9616 1.29324C86.3616 1.68901 86.5894 2.22663 86.5955 2.78935V83.6655C86.5894 84.2283 86.3616 84.7659 85.9616 85.1617C85.5615 85.5574 85.0215 85.7794 84.4587 85.7794ZM82.3449 81.6666V4.92613H18.6549V81.6666H82.3449Z" fill="#FEE856"/>
<path d="M88.7086 49.8906C87.906 49.8997 87.1095 49.7506 86.3645 49.4518C85.6195 49.1531 84.9407 48.7105 84.3667 48.1494C83.7928 47.5882 83.335 46.9195 83.0195 46.1815C82.704 45.4434 82.537 44.6504 82.528 43.8478V33.2788C82.5159 32.455 82.6661 31.637 82.9701 30.8713C83.2742 30.1056 83.7261 29.4073 84.3 28.8163C84.874 28.2253 85.5587 27.7532 86.3151 27.4268C87.0716 27.1005 87.8849 26.9263 88.7086 26.9144H93.7404C95.421 26.9381 97.026 27.6163 98.2144 28.8047C99.4029 29.9932 100.081 31.5982 100.105 33.2788V43.71C100.123 45.3153 99.5097 46.8635 98.3962 48.02C97.2827 49.1765 95.7589 49.8484 94.154 49.8906H88.7086ZM88.7086 31.119C88.1499 31.125 87.6157 31.3496 87.2205 31.7447C86.8254 32.1399 86.6008 32.6741 86.5948 33.2328V43.664C86.6008 44.2228 86.8254 44.757 87.2205 45.1521C87.6157 45.5472 88.1499 45.7719 88.7086 45.7778H93.7404C94.271 45.8384 94.8047 45.6936 95.2319 45.3731C95.6591 45.0527 95.9476 44.5809 96.038 44.0546V33.4166C96.0875 33.1598 96.0848 32.8956 96.0303 32.6397C95.9757 32.3839 95.8702 32.1417 95.7202 31.9274C95.5702 31.7131 95.3787 31.5311 95.157 31.3922C94.9353 31.2534 94.688 31.1605 94.4297 31.119H88.7086Z" fill="#FEE856"/>
<path d="M73.6598 98.1406H67.4792C66.5951 98.1436 65.7191 97.9724 64.9012 97.6369C64.0833 97.3014 63.3394 96.808 62.7122 96.1851C62.0849 95.5621 61.5865 94.8216 61.2454 94.006C60.9043 93.1904 60.7272 92.3156 60.7242 91.4315V83.6656C60.6904 83.3839 60.713 83.0984 60.7908 82.8255C60.8685 82.5527 60.9998 82.2981 61.177 82.0766C61.3541 81.8551 61.5736 81.671 61.8227 81.5352C62.0717 81.3994 62.3453 81.3145 62.6275 81.2855C62.9096 81.2565 63.1948 81.284 63.4662 81.3664C63.7377 81.4488 63.99 81.5844 64.2085 81.7653C64.427 81.9462 64.6073 82.1688 64.7388 82.4201C64.8704 82.6714 64.9506 82.9464 64.9748 83.229C64.9976 83.3736 64.9976 83.5209 64.9748 83.6656V91.3856C64.9866 92.0461 65.2542 92.6762 65.7214 93.1434C66.1885 93.6105 66.8187 93.8782 67.4792 93.89H73.6598C74.3429 93.8866 74.9999 93.6278 75.5017 93.1643C76.0035 92.7008 76.3136 92.0662 76.371 91.3856V83.6656C76.3709 83.1028 76.5929 82.5628 76.9887 82.1627C77.3844 81.7626 77.9221 81.5348 78.4848 81.5288C79.0238 81.6009 79.5238 81.8498 79.9063 82.2365C80.2888 82.6232 80.5322 83.1257 80.5986 83.6656V91.3856C80.5624 93.1976 79.8139 94.9226 78.5152 96.1868C77.2166 97.4511 75.4722 98.153 73.6598 98.1406Z" fill="#FEE856"/>
<path d="M64.7912 74.7737C63.8729 74.7738 62.9915 74.4122 62.3378 73.7671C61.6842 73.1221 61.3109 72.2455 61.2988 71.3273V62.6193C61.3049 61.701 61.6723 60.8221 62.3216 60.1727C62.971 59.5234 63.8499 59.1559 64.7682 59.1499H75.59C76.0426 59.1469 76.4914 59.233 76.9107 59.4034C77.33 59.5739 77.7116 59.8252 78.0338 60.1431C78.3559 60.461 78.6123 60.8392 78.7883 61.2562C78.9643 61.6732 79.0564 62.1208 79.0594 62.5734V71.3043C79.0625 71.7569 78.9763 72.2057 78.8059 72.625C78.6355 73.0443 78.3842 73.4259 78.0663 73.7481C77.7484 74.0702 77.3701 74.3266 76.9531 74.5026C76.5361 74.6786 76.0886 74.7707 75.636 74.7737H64.7912ZM65.3656 70.7299H74.8088V63.4005H65.3656V70.7299Z" fill="#FEE856"/>
<path d="M84.4586 45.8237C84.0152 45.8293 83.5797 45.7064 83.2047 45.4699C82.8296 45.2335 82.5309 44.8935 82.3448 44.4911L74.4409 20.5499L72.3042 18.4361H28.6494L26.5126 20.5499L18.4709 44.4911C18.2251 44.9698 17.819 45.347 17.3236 45.5569C16.8281 45.7669 16.2747 45.7962 15.7598 45.6399C15.5409 45.5813 15.3357 45.4801 15.156 45.3421C14.9763 45.204 14.8256 45.0319 14.7125 44.8356C14.5994 44.6393 14.5261 44.4225 14.4968 44.1978C14.4676 43.9731 14.4829 43.7449 14.542 43.5261V43.1585L22.9283 19.0105C22.9266 18.8319 22.9603 18.6547 23.0273 18.489C23.0943 18.3234 23.1934 18.1727 23.3189 18.0455L26.2139 15.1505C26.606 14.6999 27.1582 14.4197 27.7533 14.3693H72.6948C72.9967 14.3572 73.2967 14.4227 73.5662 14.5594C73.8357 14.6962 74.0656 14.8997 74.2342 15.1505L77.1292 18.0455C77.2546 18.1727 77.3538 18.3234 77.4208 18.489C77.4878 18.6547 77.5215 18.8319 77.5198 19.0105L85.8142 43.1355C86.0018 43.5849 86.019 44.0873 85.8625 44.5484C85.706 45.0096 85.3865 45.3977 84.964 45.6399H84.7802L84.4586 45.8237Z" fill="#FEE856"/>
<path d="M76.9463 48.3512H24.1011C23.7801 48.3497 23.4659 48.2585 23.1939 48.088C22.9219 47.9175 22.7029 47.6744 22.5617 47.3862C22.3576 47.1135 22.2167 46.7989 22.1492 46.4651C22.0816 46.1313 22.0891 45.7867 22.1711 45.4562L29.3167 23.2612C29.442 22.8637 29.694 22.5182 30.0343 22.2775C30.3745 22.0369 30.7842 21.9143 31.2007 21.9285H69.8008C70.2149 21.959 70.6131 22.1011 70.9529 22.3398C71.2928 22.5785 71.5616 22.9049 71.7308 23.2841L79.0602 45.663C79.1274 46.331 78.9912 47.0037 78.6696 47.5929C78.1987 48.0352 77.5905 48.3028 76.9463 48.3512ZM74.0513 44.2844L68.0546 26.1562H32.7402L26.7663 44.2844H74.0513Z" fill="#FEE856"/>
<path d="M56.4746 85.7793C55.9158 85.7734 55.3816 85.5487 54.9865 85.1536C54.5914 84.7585 54.3668 84.2243 54.3608 83.6655V63.7911H50.317C49.7586 63.8389 49.2038 63.6654 48.7721 63.308C48.3405 62.9506 48.0665 62.4379 48.0092 61.8804C47.952 61.3229 48.116 60.7653 48.466 60.3276C48.816 59.8899 49.324 59.6073 49.8804 59.5405H56.4746C57.0373 59.5405 57.5774 59.7625 57.9775 60.1582C58.3775 60.554 58.6053 61.0916 58.6114 61.6543V83.6655C58.6053 84.2282 58.3775 84.7659 57.9775 85.1616C57.5774 85.5574 57.0373 85.7794 56.4746 85.7793Z" fill="#FEE856"/>
<path d="M56.4735 74.7738H44.5259C43.9653 74.7738 43.4276 74.551 43.0312 74.1546C42.6348 73.7582 42.4121 73.2206 42.4121 72.66C42.4121 72.0993 42.6348 71.5617 43.0312 71.1653C43.4276 70.7688 43.9653 70.5461 44.5259 70.5461H56.4735C57.0341 70.5461 57.5718 70.7688 57.9682 71.1653C58.3646 71.5617 58.5873 72.0993 58.5873 72.66C58.5873 73.2206 58.3646 73.7582 57.9682 74.1546C57.5718 74.551 57.0341 74.7738 56.4735 74.7738Z" fill="#FEE856"/>
</svg>
